REM DIRINDEX 1\2\6,1\2\7,1\2\8,1\2\9,1\3\10,1\3\11,1\4\12,1\4\13,1\4\14,1\5\15,1\5\16,1\5\17
REM DIRNAME cjc029,folder01,folder02,folder03,folder04,folder05,folder06,folder07,folder08,folder09,folder10,folder11,folder12,folder13,folder14,folder15,folder16
TITLE ""
FILE "1400_2_sec14_1332_1347.mp3" MP3
  TRACK 01 AUDIO
    TITLE "0:"
    INDEX 01 00:00:00
  TRACK 02 AUDIO
    TITLE "13:cjc029_4285"
    INDEX 01 00:00:21
  TRACK 03 AUDIO
    TITLE "0:"
    INDEX 01 00:01:19
  TRACK 04 AUDIO
    TITLE "14:cjc029_4286"
    INDEX 01 00:01:34
  TRACK 05 AUDIO
    TITLE "0:"
    INDEX 01 00:03:37
  TRACK 06 AUDIO
    TITLE "13:cjc029_4287"
    INDEX 01 00:04:19
  TRACK 07 AUDIO
    TITLE "0:"
    INDEX 01 00:05:22
  TRACK 08 AUDIO
    TITLE "14:cjc029_4288"
    INDEX 01 00:05:26
  TRACK 09 AUDIO
    TITLE "0:"
    INDEX 01 00:07:70
  TRACK 10 AUDIO
    TITLE "13:cjc029_4289"
    INDEX 01 00:08:54
  TRACK 11 AUDIO
    TITLE "0:"
    INDEX 01 00:10:10
  TRACK 12 AUDIO
    TITLE "14:cjc029_4290"
    INDEX 01 00:10:12
  TRACK 13 AUDIO
    TITLE "0:"
    INDEX 01 00:11:13
  TRACK 14 AUDIO
    TITLE "13:cjc029_4291"
    INDEX 01 00:11:70
  TRACK 15 AUDIO
    TITLE "0:"
    INDEX 01 00:12:69
  TRACK 16 AUDIO
    TITLE "14:cjc029_4292"
    INDEX 01 00:12:73
  TRACK 17 AUDIO
    TITLE "0:"
    INDEX 01 00:14:68
  TRACK 18 AUDIO
    TITLE "13:cjc029_4293"
    INDEX 01 00:15:50
  TRACK 19 AUDIO
    TITLE "0:"
    INDEX 01 00:16:61
  TRACK 20 AUDIO
    TITLE "14:cjc029_4294"
    INDEX 01 00:16:65
  TRACK 21 AUDIO
    TITLE "0:"
    INDEX 01 00:18:33
  TRACK 22 AUDIO
    TITLE "13:cjc029_4295"
    INDEX 01 00:19:26
  TRACK 23 AUDIO
    TITLE "0:"
    INDEX 01 00:20:37
  TRACK 24 AUDIO
    TITLE "14:cjc029_4296"
    INDEX 01 00:20:39
  TRACK 25 AUDIO
    TITLE "0:"
    INDEX 01 00:22:58
  TRACK 26 AUDIO
    TITLE "13:cjc029_4297"
    INDEX 01 00:23:42
  TRACK 27 AUDIO
    TITLE "0:"
    INDEX 01 00:25:09
  TRACK 28 AUDIO
    TITLE "14:cjc029_4298"
    INDEX 01 00:25:15
  TRACK 29 AUDIO
    TITLE "0:"
    INDEX 01 00:28:31
  TRACK 30 AUDIO
    TITLE "13:cjc029_4299"
    INDEX 01 00:29:11
  TRACK 31 AUDIO
    TITLE "0:"
    INDEX 01 00:30:34
  TRACK 32 AUDIO
    TITLE "14:cjc029_4300"
    INDEX 01 00:30:42
  TRACK 33 AUDIO
    TITLE "0:"
    INDEX 01 00:34:02
  TRACK 34 AUDIO
    TITLE "13:cjc029_4301"
    INDEX 01 00:34:61
  TRACK 35 AUDIO
    TITLE "0:"
    INDEX 01 00:35:68
  TRACK 36 AUDIO
    TITLE "14:cjc029_4302"
    INDEX 01 00:35:74
  TRACK 37 AUDIO
    TITLE "0:"
    INDEX 01 00:38:30
  TRACK 38 AUDIO
    TITLE "13:cjc029_4303"
    INDEX 01 00:39:15
  TRACK 39 AUDIO
    TITLE "0:"
    INDEX 01 00:40:30
  TRACK 40 AUDIO
    TITLE "14:cjc029_4304"
    INDEX 01 00:40:36
  TRACK 41 AUDIO
    TITLE "0:"
    INDEX 01 00:43:19
  TRACK 42 AUDIO
    TITLE "12:cjc029_4305"
    INDEX 01 00:44:69
  TRACK 43 AUDIO
    TITLE "0:"
    INDEX 01 00:46:25
  TRACK 44 AUDIO
    TITLE "13:cjc029_4306"
    INDEX 01 00:47:34
  TRACK 45 AUDIO
    TITLE "0:"
    INDEX 01 00:48:57
  TRACK 46 AUDIO
    TITLE "14:cjc029_4307"
    INDEX 01 00:48:65
  TRACK 47 AUDIO
    TITLE "0:"
    INDEX 01 00:52:47
  TRACK 48 AUDIO
    TITLE "13:cjc029_4308"
    INDEX 01 00:53:29
  TRACK 49 AUDIO
    TITLE "0:"
    INDEX 01 00:54:40
  TRACK 50 AUDIO
    TITLE "14:cjc029_4309"
    INDEX 01 00:54:46
  TRACK 51 AUDIO
    TITLE "0:"
    INDEX 01 00:55:67
  TRACK 52 AUDIO
    TITLE "13:cjc029_4310"
    INDEX 01 00:56:55
  TRACK 53 AUDIO
    TITLE "0:"
    INDEX 01 00:58:07
  TRACK 54 AUDIO
    TITLE "14:cjc029_4311"
    INDEX 01 00:58:13
  TRACK 55 AUDIO
    TITLE "0:"
    INDEX 01 01:03:20
  TRACK 56 AUDIO
    TITLE "13:cjc029_4312"
    INDEX 01 01:03:73
  TRACK 57 AUDIO
    TITLE "0:"
    INDEX 01 01:05:09
  TRACK 58 AUDIO
    TITLE "14:cjc029_4313"
    INDEX 01 01:05:13
  TRACK 59 AUDIO
    TITLE "0:"
    INDEX 01 01:06:22
  TRACK 60 AUDIO
    TITLE "13:cjc029_4314"
    INDEX 01 01:07:02
  TRACK 61 AUDIO
    TITLE "0:"
    INDEX 01 01:08:21
  TRACK 62 AUDIO
    TITLE "14:cjc029_4315"
    INDEX 01 01:08:27
  TRACK 63 AUDIO
    TITLE "0:"
    INDEX 01 01:11:54
  TRACK 64 AUDIO
    TITLE "13:cjc029_4316"
    INDEX 01 01:12:34
  TRACK 65 AUDIO
    TITLE "0:"
    INDEX 01 01:13:49
  TRACK 66 AUDIO
    TITLE "14:cjc029_4317"
    INDEX 01 01:13:55
  TRACK 67 AUDIO
    TITLE "0:"
    INDEX 01 01:15:07
